<svg width="110" height="26" viewBox="0 0 110 26" fill="none" xmlns="http://www.w3.org/2000/svg">
<path d="M0.476562 25V8.33594H0.792969L4.41406 17.0195V25H0.476562ZM0.476562 2.92188V0.390625H3.60547L11.0586 18.4961L15.9102 7.52734H16.2617V16.457L12.4648 25H9.65234L0.476562 2.92188ZM18.0547 25V0.390625H21.9922V25H18.0547ZM24.8047 19.6914V10.7617C24.8516 9.61328 25.3789 8.5 26.3867 7.42188C27.6289 6.17969 29.1289 5.54688 30.8867 5.52344V9.03906C29.9727 9.03906 29.2812 9.44922 28.8125 10.2695C28.6484 10.5508 28.5664 10.8086 28.5664 11.043V13.1523H35.2461V11.0781C35.2461 10.0938 34.707 9.44922 33.6289 9.14453C33.3242 9.05078 33.0195 9.00391 32.7148 9.00391V5.52344C34.3789 5.52344 35.8555 6.09766 37.1445 7.24609C38.2227 8.27734 38.7734 9.4375 38.7969 10.7266V16.7734H28.5664V19.6914C28.5664 20.3008 28.9062 20.8047 29.5859 21.2031C30.0078 21.4375 30.4648 21.5547 30.957 21.5547V25C28.7773 25 27.0547 24.1211 25.7891 22.3633C25.1328 21.4023 24.8047 20.5117 24.8047 19.6914ZM32.7148 25V21.5195C34.0742 21.5195 35.0117 20.9453 35.5273 19.7969C35.5977 19.6328 35.6562 19.4805 35.7031 19.3398L38.832 20.4648C38.4102 22.0586 37.4609 23.2891 35.9844 24.1562C34.9766 24.7188 33.8867 25 32.7148 25ZM40.7305 9.25V5.62891H43.1211V0.00390625H46.8477V5.62891H49.168V9.28516H46.8477L46.8828 19.0234C46.9297 20.4297 47.6328 21.1445 48.9922 21.168H49.7305L50.5742 25H48.9219C45.9453 25 44.1289 23.8633 43.4727 21.5898C43.2383 20.7695 43.1211 19.7969 43.1211 18.6719V9.25H40.7305ZM51.8398 20.4648C51.8398 21.7773 52.4727 22.8906 53.7383 23.8047C54.8398 24.6016 56.1523 25 57.6758 25V21.5195C55.9414 21.4961 55.0625 20.8867 55.0391 19.6914V18.9531C55.0625 18.4844 55.2031 18.1562 55.4609 17.9688C55.6484 17.8281 56.75 17.4883 58.7656 16.9492C60.1719 16.5742 61.1562 16.2344 61.7188 15.9297V19.4102C61.7188 20.5352 61.1914 21.2148 60.1367 21.4492C59.9258 21.4961 59.7031 21.5195 59.4688 21.5195V25C61.0156 24.9766 62.2578 24.5781 63.1953 23.8047C64.0156 24.6016 65.0469 25 66.2891 25V21.4844C65.6797 21.4375 65.3633 21.0625 65.3398 20.3594V10.9023C65.3398 9.49609 64.7773 8.24219 63.6523 7.14062C62.5273 6.03906 61.1211 5.48828 59.4336 5.48828V8.93359C60.4883 8.93359 61.1914 9.36719 61.543 10.2344C61.6602 10.5156 61.7188 10.8086 61.7188 11.1133V11.8516C61.7188 12.4609 60.4297 13.1641 57.8516 13.9609C55.4141 14.7109 54.0312 15.1797 53.7031 15.3672C52.4844 16.0938 51.8633 17.2188 51.8398 18.7422V20.4648ZM52.1211 10.375L55.3555 11.6055C55.3555 10.2695 55.8711 9.42578 56.9023 9.07422C57.1602 8.98047 57.418 8.93359 57.6758 8.93359V5.48828C56.0586 5.48828 54.6641 6.07422 53.4922 7.24609C52.5781 8.18359 52.1211 9.22656 52.1211 10.375ZM68.8203 25V0.00390625H72.8281V25H68.8203Z" fill="white"/>
<path d="M75.6758 18.25C75.6758 20.875 76.8359 22.8438 79.1562 24.1562C80.3516 24.8359 81.5 25.1758 82.6016 25.1758V21.2734C82.0156 21.2734 81.3828 21.0156 80.7031 20.5C79.9766 19.8906 79.6016 19.1406 79.5781 18.25V7.14062C79.5781 6.17969 79.9766 5.38281 80.7734 4.75C81.3125 4.35156 81.9219 4.14062 82.6016 4.11719V0.214844C80.0469 0.214844 78.0898 1.31641 76.7305 3.51953C76.1211 4.55078 75.7695 5.57031 75.6758 6.57812V18.25ZM84.3945 25.1758C85.8945 25.1523 87.3828 24.4258 88.8594 22.9961C90.2422 21.5898 90.9453 20.1953 90.9688 18.8125V12.5898H84.3945V16.2109H86.9961V18.3203C86.9961 19.3516 86.457 20.207 85.3789 20.8867C84.9805 21.1445 84.6523 21.2734 84.3945 21.2734V25.1758ZM84.3945 4.11719C85.2617 4.14062 85.9766 4.55078 86.5391 5.34766C86.8672 5.86328 87.0547 6.46094 87.1016 7.14062V8.26562L90.9688 6.85938C90.9688 5.05469 90.2188 3.44922 88.7188 2.04297C87.3828 0.824219 85.9414 0.214844 84.3945 0.214844V4.11719ZM93.5703 18.1445V6.57812C93.5703 5.33594 94.0977 4.07031 95.1523 2.78125C96.5586 1.09375 98.3398 0.238281 100.496 0.214844V4.11719C99.2773 4.14062 98.3633 4.79688 97.7539 6.08594C97.5664 6.50781 97.4727 6.85938 97.4727 7.14062V18.1445C97.4727 19.4102 98.1289 20.3477 99.4414 20.957C99.8398 21.1445 100.18 21.2383 100.461 21.2383V25.1758C99.125 25.1758 97.7891 24.6953 96.4531 23.7344C94.5547 22.3281 93.5938 20.4648 93.5703 18.1445ZM102.395 25.1758V21.2383C103.004 21.2383 103.637 20.957 104.293 20.3945C104.996 19.7617 105.359 19.0117 105.383 18.1445V7.14062C105.383 6.4375 105.078 5.75781 104.469 5.10156C103.883 4.46875 103.191 4.14062 102.395 4.11719V0.214844C104.762 0.214844 106.66 1.23438 108.09 3.27344C108.91 4.44531 109.32 5.54688 109.32 6.57812V18.1445C109.32 20.7461 108.16 22.7383 105.84 24.1211C104.621 24.8242 103.473 25.1758 102.395 25.1758Z" fill="#EDB021"/>
</svg>
